<?xml version="1.0" encoding="UTF-8"?>
<svg version="1.1" xmlns="http://www.w3.org/2000/svg" width="1024" height="1024">
<path d="M0 0 C337.92 0 675.84 0 1024 0 C1024 337.92 1024 675.84 1024 1024 C686.08 1024 348.16 1024 0 1024 C0 686.08 0 348.16 0 0 Z " fill="#EFF7FC" transform="translate(0,0)"/>
<path d="M0 0 C8.1225229 6.47959294 12.51590337 15.45398103 14.69140625 25.4609375 C15.08617701 29.2844516 15.06784087 33.0576681 15.00390625 36.8984375 C14.9891626 38.64543945 14.9891626 38.64543945 14.97412109 40.42773438 C14.70137045 60.81010971 13.73427967 81.18677897 12.82098389 101.54827881 C12.70430969 104.17089262 12.59165936 106.79363252 12.48095703 109.41650391 C11.42726091 134.09223297 9.16240478 158.64796728 6.8125 183.23046875 C6.71463196 184.26115479 6.61676392 185.29184082 6.51593018 186.35375977 C6.02546054 191.41269714 5.46334307 196.43699205 4.69140625 201.4609375 C16.50645428 195.08052924 27.92567085 188.26195001 39.23193359 181.02294922 C43.40008161 178.37575734 47.61056813 175.79764904 51.81640625 173.2109375 C60.81537029 167.66125337 69.77532182 162.04803461 78.61938477 156.25390625 C83.34087846 153.16915263 88.0058528 150.2242276 93.0546875 147.703125 C99.56798873 144.46840053 99.56798873 144.46840053 104.69140625 139.4609375 C106.37797572 133.67314023 105.4685096 127.67232437 104.84960938 121.77099609 C104.10723711 110.93098628 110.39215423 101.37798858 116.87890625 93.2734375 C125.18510926 84.27656553 136.30864542 79.31866725 148.39453125 78.08203125 C162.75880882 77.62391129 175.22287095 81.81573203 185.94140625 91.4921875 C196.94598993 102.99697953 200.30950928 116.0661339 200.00390625 131.45703125 C199.54771951 141.61288866 195.76358546 149.47122801 189.69140625 157.4609375 C188.96953125 158.4921875 188.24765625 159.5234375 187.50390625 160.5859375 C180.72759471 168.3549571 169.64643143 173.65681308 159.48388672 174.68408203 C146.68345914 175.5182672 136.05063959 174.20873171 125.54296875 166.31640625 C122.92318878 165.10600158 121.44655471 165.71419604 118.69140625 166.4609375 C116.52975217 167.59979181 116.52975217 167.59979181 114.453125 169.09375 C113.64512451 169.64514648 112.83712402 170.19654297 112.00463867 170.76464844 C111.13814697 171.36567383 110.27165527 171.96669922 109.37890625 172.5859375 C101.47799054 177.9623786 93.49659173 183.16743943 85.37890625 188.2109375 C84.36111084 188.84386719 83.34331543 189.47679687 82.29467773 190.12890625 C79.42839165 191.90863699 76.56023923 193.685316 73.69140625 195.4609375 C64.31665468 201.2714864 54.97791369 207.12764267 45.78466797 213.22314453 C40.91401228 216.43760943 35.98585516 219.47511313 30.9296875 222.390625 C29.77756638 223.07237211 28.62643874 223.75580097 27.47631836 224.44091797 C25.25146939 225.75891041 23.00650153 227.04367892 20.74047852 228.28955078 C14.83907304 231.79312271 14.83907304 231.79312271 11.62084961 237.62255859 C11.13727117 240.9103294 10.88813029 244.14549589 10.69140625 247.4609375 C9.6484375 251.1875 9.6484375 251.1875 8.50390625 254.0859375 C8.13910156 255.04757812 7.77429688 256.00921875 7.3984375 257 C5.69140625 260.4609375 5.69140625 260.4609375 3.98754883 262.86816406 C-1.10315441 270.07842384 -2.33065174 275.21557268 -2.24609375 283.9609375 C-2.26003174 285.23775391 -2.27396973 286.51457031 -2.28833008 287.83007812 C-2.3189478 290.86619245 -2.32366332 293.90125109 -2.31445312 296.9375 C-2.30126573 302.2222269 -2.3434624 307.50585671 -2.38774109 312.79037476 C-2.81863605 352.67886021 -2.81863605 352.67886021 -0.30859375 392.4609375 C-0.24071655 393.13026306 -0.17283936 393.79958862 -0.10290527 394.48919678 C1.27539983 429.12097907 1.27539983 429.12097907 14.69140625 458.4609375 C33.11238297 450.68415724 52.67634012 423.32833419 60.69140625 405.4609375 C68.90634745 384.58234847 68.64361176 361.41007045 68.8671875 339.296875 C68.87916168 338.27505127 68.89113586 337.25322754 68.9034729 336.20043945 C68.95188258 332.01528059 68.99972128 327.83043822 69.01733398 323.64501953 C69.15975122 295.10460551 69.15975122 295.10460551 79.4765625 284.65234375 C85.98242119 278.62282924 92.14147774 275.88378578 101.00390625 275.9609375 C102.12212769 275.96734253 102.12212769 275.96734253 103.26293945 275.97387695 C112.51326362 276.25808515 119.02174432 280.19880242 125.69140625 286.4609375 C134.62724515 297.94452954 133.54813658 310.85930844 133.19140625 324.7109375 C133.16481309 326.8944951 133.14135184 329.07809319 133.12109375 331.26171875 C133.07110926 335.22218735 133.01556786 339.18204062 132.91601562 343.14160156 C132.88767639 344.32402435 132.88767639 344.32402435 132.85876465 345.53033447 C132.69140625 347.4609375 132.69140625 347.4609375 131.69140625 349.4609375 C159.70905711 331.36779512 173.87857811 289.35127208 180.69140625 258.4609375 C181.42260929 254.69757813 182.09025694 250.92421012 182.75390625 247.1484375 C184.03538968 239.93843496 185.50969801 233.6173413 189.69140625 227.4609375 C190.41328125 226.3884375 191.13515625 225.3159375 191.87890625 224.2109375 C198.7788514 217.46432446 207.2111621 213.18438668 216.94140625 213.1484375 C228.70478266 213.38905202 236.04953247 217.0409526 244.4453125 225.15625 C250.63581388 231.82771765 253.95510617 240.08419687 253.82519531 249.16748047 C253.57213228 253.50557191 252.82898027 257.7498761 252.06640625 262.0234375 C251.88819336 263.02431396 251.70998047 264.02519043 251.52636719 265.05639648 C245.82631934 295.90272141 235.8780392 329.15474057 216.69140625 354.4609375 C216.2845459 355.00476074 215.87768555 355.54858398 215.45849609 356.10888672 C209.66777011 363.81769681 203.51090837 371.00734466 196.80859375 377.9375 C194.84702969 380.27545274 194.0406809 381.48511745 193.69140625 384.4609375 C199.32051614 384.74202315 203.78564243 383.79809044 209.12890625 382.0859375 C233.56438331 374.47887496 233.56438331 374.47887496 244.6015625 380.20703125 C253.2138146 385.37438251 259.53973265 391.66209775 262.69140625 401.4609375 C263.83885387 413.13554992 262.16665184 423.11688052 254.69140625 432.4609375 C237.34892867 451.74036712 199.27048808 456.10812933 175.13720703 457.69458008 C173.28071533 457.77421997 173.28071533 457.77421997 171.38671875 457.85546875 C169.99229714 457.92108115 168.59792979 457.98785484 167.20361328 458.05566406 C166.48610901 458.09050903 165.76860474 458.125354 165.02935791 458.16125488 C134.23680059 459.72224229 113.48257161 469.00171592 91.83984375 491.375 C90.06466598 493.36005101 88.37715158 495.39908963 86.69140625 497.4609375 C85.70473622 498.63567638 84.71772287 499.81012695 83.73046875 500.984375 C67.93179086 519.92359885 54.67026177 539.26141769 53.19140625 564.6484375 C52.54681634 575.60646591 49.85843142 583.37839213 41.98046875 591.1484375 C30.34187587 600.97003487 15.31795137 600.04432641 1.02734375 599.95703125 C-1.05764822 599.95718656 -3.14264047 599.95868079 -5.22763062 599.96144104 C-9.57636431 599.96281827 -13.92476548 599.95037859 -18.2734375 599.92749023 C-23.82223507 599.89907247 -29.37048255 599.90186185 -34.91932106 599.91458035 C-39.21754584 599.92156365 -43.51564543 599.91371859 -47.81385422 599.90132332 C-49.85899753 599.89683708 -51.90415442 599.89644702 -53.94929886 599.90038872 C-81.73181858 599.92888568 -81.73181858 599.92888568 -93.02734375 588.76171875 C-100.03297918 581.12076834 -101.24836953 572.44665773 -103.12109375 562.5234375 C-107.50946611 540.27643886 -115.24164145 522.55259368 -130.30859375 505.4609375 C-131.37013672 504.23503906 -131.37013672 504.23503906 -132.453125 502.984375 C-134.69800719 500.43613035 -136.98915985 497.94149524 -139.30859375 495.4609375 C-140.61376953 494.05714844 -140.61376953 494.05714844 -141.9453125 492.625 C-166.12561072 467.20349976 -196.43051928 453.52521148 -230.45703125 446.8828125 C-236.56173417 445.66944719 -242.53867609 444.12419903 -248.54101562 442.48291016 C-252.20491871 441.48905983 -255.87891992 440.55462547 -259.5625 439.63671875 C-291.69153442 431.51385649 -331.83619952 418.10172351 -352.140625 389.91796875 C-357.2108323 381.30930297 -357.7911817 372.19321993 -356.30859375 362.4609375 C-355.17620958 358.63376569 -353.63631018 355.68631053 -351.30859375 352.4609375 C-350.88578125 351.82027344 -350.46296875 351.17960937 -350.02734375 350.51953125 C-345.49101387 344.41394772 -337.80874706 339.8097793 -330.30859375 338.4609375 C-316.01429811 337.02680587 -306.05259062 343.00195642 -294.62109375 350.62890625 C-290.6632024 353.25597437 -286.65015805 355.7193107 -282.49609375 358.0234375 C-281.39652344 358.64347656 -280.29695313 359.26351563 -279.1640625 359.90234375 C-274.20554248 362.25096932 -268.69560046 362.74189379 -263.30859375 363.4609375 C-263.66985352 362.82406006 -264.03111328 362.18718262 -264.40332031 361.53100586 C-283.66572807 327.51150082 -301.09328705 294.00935031 -310.24609375 255.7734375 C-310.55313232 254.50814209 -310.8601709 253.24284668 -311.17651367 251.93920898 C-314.09156737 239.28153996 -314.73102585 228.42511006 -307.765625 216.91015625 C-301.87798745 208.89380764 -294.11015847 202.75959168 -284.30859375 200.4609375 C-273.55787764 199.3803527 -263.75860787 200.02009809 -254.625 206.30859375 C-243.62367975 215.3156182 -240.96255896 225.8155887 -238.83300781 239.28051758 C-234.2976351 267.83192072 -223.76194852 311.94193499 -200.05078125 331.3046875 C-199.47585938 331.68625 -198.9009375 332.0678125 -198.30859375 332.4609375 C-198.47012939 331.75155029 -198.63166504 331.04216309 -198.7980957 330.3112793 C-199.68991222 325.3318638 -199.49315151 320.31937752 -199.49609375 315.2734375 C-199.50833984 314.18740234 -199.52058594 313.10136719 -199.53320312 311.98242188 C-199.55650359 299.05066142 -197.55188528 288.84041104 -188.55859375 279.1484375 C-181.41619755 272.52188103 -174.84457598 270.8575263 -165.19140625 270.98999023 C-159.43762127 271.2457894 -155.08243356 272.25605506 -150.30859375 275.4609375 C-149.61378906 275.92371094 -148.91898438 276.38648438 -148.203125 276.86328125 C-141.27436597 282.18009634 -136.95062946 289.62178049 -135.80090332 298.2875061 C-135.5770319 302.62536321 -135.68504583 306.95309362 -135.79296875 311.29296875 C-135.80929789 312.89895434 -135.82260355 314.50497318 -135.83306885 316.11100769 C-135.86704194 320.31270876 -135.93532802 324.51308174 -136.01318359 328.71417236 C-136.13223053 335.42352348 -136.20023821 342.13351404 -136.2647171 348.84357262 C-136.29211501 351.15833863 -136.33537457 353.47235659 -136.38128662 355.78681946 C-136.57770667 368.17108078 -135.73035771 380.37455268 -131.99609375 392.2734375 C-131.77663086 392.9857251 -131.55716797 393.6980127 -131.33105469 394.43188477 C-124.29153078 416.5650946 -103.53950777 434.60273714 -83.30859375 445.4609375 C-80.59905824 445.71289879 -80.59905824 445.71289879 -78.30859375 445.4609375 C-74.4382077 438.64325566 -76.41603644 430.0364676 -77.1484375 422.51953125 C-77.23485001 421.59358658 -77.32126251 420.66764191 -77.41029358 419.71363831 C-77.68497681 416.77485362 -77.96507939 413.83662299 -78.24609375 410.8984375 C-80.16826255 390.67263152 -81.48545054 370.72274318 -81.43359375 350.3984375 C-81.43270752 349.39225372 -81.43182129 348.38606995 -81.4309082 347.34939575 C-81.41787828 334.69019844 -81.2633765 322.04944726 -80.80859375 309.3984375 C-80.7470813 307.55221802 -80.7470813 307.55221802 -80.68432617 305.66870117 C-80.49794884 300.20549242 -80.27085694 294.75055303 -79.9609375 289.29296875 C-79.52280696 279.64505483 -79.43435675 273.43054997 -86.203125 265.87109375 C-93.60346411 257.39983359 -95.65955374 245.97741941 -95.49609375 235.0859375 C-95.49762451 234.24740234 -95.49915527 233.40886719 -95.50073242 232.54492188 C-95.47898743 228.15499259 -95.12772049 224.24944319 -94.12109375 219.9609375 C-93.69983591 217.70588485 -93.69983591 217.70588485 -94.30859375 215.4609375 C-97.12281654 211.82868652 -100.26247928 208.97440737 -103.72473145 205.95114136 C-105.4615038 204.31706947 -106.98045002 202.58238743 -108.52539062 200.76611328 C-112.16440788 196.57015353 -116.01431975 192.64332096 -119.96484375 188.7421875 C-120.67080688 188.04001099 -121.37677002 187.33783447 -122.10412598 186.61437988 C-124.33650733 184.39409147 -126.57211486 182.17709795 -128.80859375 179.9609375 C-131.75949753 177.03684271 -134.70692578 174.10930693 -137.65234375 171.1796875 C-138.64796326 170.1965155 -138.64796326 170.1965155 -139.66369629 169.19348145 C-144.87006069 164.01409132 -149.86202444 158.66760601 -154.3203125 152.82421875 C-156.18420397 150.54323268 -157.74656637 148.93443511 -160.30859375 147.4609375 C-163.36409329 147.66276005 -165.86819143 148.52285951 -168.76953125 149.49609375 C-181.07862609 152.85188451 -194.13667797 150.86287613 -205.23828125 144.8828125 C-217.79376764 137.32910524 -225.61758159 127.3594513 -229.61328125 113.15625 C-231.70924962 102.01700239 -231.55322065 90.68877688 -226.30859375 80.4609375 C-225.88449219 79.61273438 -225.46039063 78.76453125 -225.0234375 77.890625 C-218.35154508 65.73625831 -207.94108787 57.28662153 -194.77978516 53.06738281 C-190.52555071 52.02336796 -186.35843621 51.97265214 -181.99609375 52.0234375 C-181.07401123 52.03173584 -180.15192871 52.04003418 -179.2019043 52.04858398 C-165.45890847 52.38820071 -155.55530083 57.4985933 -145.55859375 66.7734375 C-135.96443948 76.95452827 -131.50620039 90.00075805 -131.91015625 103.890625 C-132.78746842 111.7520301 -135.29770223 119.17783504 -138.30859375 126.4609375 C-137.45136719 127.3065625 -136.59414063 128.1521875 -135.7109375 129.0234375 C-134.55585196 130.1691321 -133.4009119 131.31497338 -132.24609375 132.4609375 C-131.68470703 133.01394531 -131.12332031 133.56695312 -130.54492188 134.13671875 C-127.63199585 137.03299948 -124.8356061 139.97333681 -122.17114258 143.10058594 C-117.98800844 147.90329935 -113.50486771 152.3724306 -108.98046875 156.8515625 C-108.10964661 157.71859802 -107.23882446 158.58563354 -106.34161377 159.47894287 C-103.58303305 162.22539333 -100.82122556 164.96856242 -98.05859375 167.7109375 C-94.4046756 171.33826789 -90.75407581 174.96889081 -87.10546875 178.6015625 C-86.26796082 179.43077209 -85.43045288 180.25998169 -84.56756592 181.11431885 C-83.78955627 181.88902527 -83.01154663 182.66373169 -82.20996094 183.46191406 C-81.5271405 184.13949768 -80.84432007 184.8170813 -80.14080811 185.51519775 C-78.36231814 187.40388431 -76.82015944 189.35505717 -75.30859375 191.4609375 C-74.31859375 191.1309375 -73.32859375 190.8009375 -72.30859375 190.4609375 C-63.78298295 148.37707141 -62.14912305 104.62488405 -60.8203125 61.81640625 C-60.78137878 60.61027176 -60.74244507 59.40413727 -60.70233154 58.16145325 C-60.51565907 52.33486862 -60.34836309 46.50903469 -60.21826172 40.6809082 C-60.15655033 38.56589962 -60.09424363 36.45090829 -60.03125 34.3359375 C-60.01768967 33.3953801 -60.00412933 32.45482269 -59.99015808 31.48576355 C-59.60910519 20.1547952 -55.58640609 10.82737778 -47.6484375 2.77734375 C-34.20478221 -9.50262384 -14.97106013 -9.98070675 0 0 Z " fill="#2A7FB7" transform="translate(543.30859375,208.5390625)"/>
<path d="M0 0 C8.1225229 6.47959294 12.51590337 15.45398103 14.69140625 25.4609375 C15.08617701 29.2844516 15.06784087 33.0576681 15.00390625 36.8984375 C14.9891626 38.64543945 14.9891626 38.64543945 14.97412109 40.42773438 C14.70137045 60.81010971 13.73427967 81.18677897 12.82098389 101.54827881 C12.70430969 104.17089262 12.59165936 106.79363252 12.48095703 109.41650391 C11.42726091 134.09223297 9.16240478 158.64796728 6.8125 183.23046875 C6.71463196 184.26115479 6.61676392 185.29184082 6.51593018 186.35375977 C6.02546054 191.41269714 5.46334307 196.43699205 4.69140625 201.4609375 C16.50645428 195.08052924 27.92567085 188.26195001 39.23193359 181.02294922 C43.40008161 178.37575734 47.61056813 175.79764904 51.81640625 173.2109375 C60.81537029 167.66125337 69.77532182 162.04803461 78.61938477 156.25390625 C83.34087846 153.16915263 88.0058528 150.2242276 93.0546875 147.703125 C99.56798873 144.46840053 99.56798873 144.46840053 104.69140625 139.4609375 C106.37797572 133.67314023 105.4685096 127.67232437 104.84960938 121.77099609 C104.10723711 110.93098628 110.39215423 101.37798858 116.87890625 93.2734375 C125.18510926 84.27656553 136.30864542 79.31866725 148.39453125 78.08203125 C162.75880882 77.62391129 175.22287095 81.81573203 185.94140625 91.4921875 C196.94598993 102.99697953 200.30950928 116.0661339 200.00390625 131.45703125 C199.54771951 141.61288866 195.76358546 149.47122801 189.69140625 157.4609375 C188.60859375 159.0078125 188.60859375 159.0078125 187.50390625 160.5859375 C180.72759471 168.3549571 169.64643143 173.65681308 159.48388672 174.68408203 C146.68345914 175.5182672 136.05063959 174.20873171 125.54296875 166.31640625 C122.92318878 165.10600158 121.44655471 165.71419604 118.69140625 166.4609375 C116.52975217 167.59979181 116.52975217 167.59979181 114.453125 169.09375 C113.64512451 169.64514648 112.83712402 170.19654297 112.00463867 170.76464844 C111.13814697 171.36567383 110.27165527 171.96669922 109.37890625 172.5859375 C101.47799054 177.9623786 93.49659173 183.16743943 85.37890625 188.2109375 C84.36111084 188.84386719 83.34331543 189.47679687 82.29467773 190.12890625 C79.42839165 191.90863699 76.56023923 193.685316 73.69140625 195.4609375 C64.31665468 201.2714864 54.97791369 207.12764267 45.78466797 213.22314453 C40.91401228 216.43760943 35.98585516 219.47511313 30.9296875 222.390625 C29.77756638 223.07237211 28.62643874 223.75580097 27.47631836 224.44091797 C25.25146939 225.75891041 23.00650153 227.04367892 20.74047852 228.28955078 C14.83907304 231.79312271 14.83907304 231.79312271 11.62084961 237.62255859 C11.13727117 240.9103294 10.88813029 244.14549589 10.69140625 247.4609375 C8.77932924 254.29285309 6.02809324 260.17076497 1.94140625 265.9609375 C-2.08049228 271.86728307 -2.3866157 277.45010766 -2.30859375 284.4609375 C-2.63859375 284.4609375 -2.96859375 284.4609375 -3.30859375 284.4609375 C-3.36288348 282.23204254 -3.40151713 280.00276279 -3.43359375 277.7734375 C-3.45679688 276.53207031 -3.48 275.29070312 -3.50390625 274.01171875 C-3.31891396 270.64855893 -2.7662727 268.4623788 -1.30859375 265.4609375 C-1.96859375 265.1309375 -2.62859375 264.8009375 -3.30859375 264.4609375 C-2.97859375 262.4809375 -2.64859375 260.5009375 -2.30859375 258.4609375 C-3.29859375 257.8009375 -4.28859375 257.1409375 -5.30859375 256.4609375 C-5.98921875 257.1621875 -6.66984375 257.8634375 -7.37109375 258.5859375 C-18.4613966 269.61393528 -28.88430755 275.96995508 -44.85253906 275.95947266 C-51.73871392 275.73317357 -57.22940492 273.66509594 -63.30859375 270.4609375 C-65.01015625 269.7184375 -65.01015625 269.7184375 -66.74609375 268.9609375 C-69.76498006 267.19378454 -71.8442094 264.92532185 -74.30859375 262.4609375 C-76.48205943 261.59974616 -76.48205943 261.59974616 -78.30859375 261.4609375 C-78.30859375 262.1209375 -78.30859375 262.7809375 -78.30859375 263.4609375 C-79.20578125 263.1515625 -79.20578125 263.1515625 -80.12109375 262.8359375 C-82.59310221 262.15421835 -82.59310221 262.15421835 -85.30859375 264.4609375 C-85.63859375 265.1209375 -85.96859375 265.7809375 -86.30859375 266.4609375 C-87.44409142 264.2992414 -88.56688347 262.1323186 -89.68359375 259.9609375 C-90.00070312 259.36023438 -90.3178125 258.75953125 -90.64453125 258.140625 C-94.53749443 250.51690544 -95.6238226 243.59662201 -95.49609375 235.0859375 C-95.49762451 234.24740234 -95.49915527 233.40886719 -95.50073242 232.54492188 C-95.47898743 228.15499259 -95.12772049 224.24944319 -94.12109375 219.9609375 C-93.69983591 217.70588485 -93.69983591 217.70588485 -94.30859375 215.4609375 C-97.12281654 211.82868652 -100.26247928 208.97440737 -103.72473145 205.95114136 C-105.4615038 204.31706947 -106.98045002 202.58238743 -108.52539062 200.76611328 C-112.16440788 196.57015353 -116.01431975 192.64332096 -119.96484375 188.7421875 C-120.67080688 188.04001099 -121.37677002 187.33783447 -122.10412598 186.61437988 C-124.33650733 184.39409147 -126.57211486 182.17709795 -128.80859375 179.9609375 C-131.75949753 177.03684271 -134.70692578 174.10930693 -137.65234375 171.1796875 C-138.31609009 170.5242395 -138.97983643 169.8687915 -139.66369629 169.19348145 C-144.87006069 164.01409132 -149.86202444 158.66760601 -154.3203125 152.82421875 C-156.18420397 150.54323268 -157.74656637 148.93443511 -160.30859375 147.4609375 C-163.36409329 147.66276005 -165.86819143 148.52285951 -168.76953125 149.49609375 C-181.07862609 152.85188451 -194.13667797 150.86287613 -205.23828125 144.8828125 C-217.79376764 137.32910524 -225.61758159 127.3594513 -229.61328125 113.15625 C-231.70924962 102.01700239 -231.55322065 90.68877688 -226.30859375 80.4609375 C-225.67244141 79.18863281 -225.67244141 79.18863281 -225.0234375 77.890625 C-218.35154508 65.73625831 -207.94108787 57.28662153 -194.77978516 53.06738281 C-190.52555071 52.02336796 -186.35843621 51.97265214 -181.99609375 52.0234375 C-181.07401123 52.03173584 -180.15192871 52.04003418 -179.2019043 52.04858398 C-165.45890847 52.38820071 -155.55530083 57.4985933 -145.55859375 66.7734375 C-135.96443948 76.95452827 -131.50620039 90.00075805 -131.91015625 103.890625 C-132.78746842 111.7520301 -135.29770223 119.17783504 -138.30859375 126.4609375 C-137.45136719 127.3065625 -136.59414063 128.1521875 -135.7109375 129.0234375 C-134.55585196 130.1691321 -133.4009119 131.31497338 -132.24609375 132.4609375 C-131.68470703 133.01394531 -131.12332031 133.56695312 -130.54492188 134.13671875 C-127.63199585 137.03299948 -124.8356061 139.97333681 -122.17114258 143.10058594 C-117.98800844 147.90329935 -113.50486771 152.3724306 -108.98046875 156.8515625 C-108.10964661 157.71859802 -107.23882446 158.58563354 -106.34161377 159.47894287 C-103.58303305 162.22539333 -100.82122556 164.96856242 -98.05859375 167.7109375 C-94.4046756 171.33826789 -90.75407581 174.96889081 -87.10546875 178.6015625 C-85.84920685 179.84537689 -85.84920685 179.84537689 -84.56756592 181.11431885 C-83.78955627 181.88902527 -83.01154663 182.66373169 -82.20996094 183.46191406 C-81.5271405 184.13949768 -80.84432007 184.8170813 -80.14080811 185.51519775 C-78.36231814 187.40388431 -76.82015944 189.35505717 -75.30859375 191.4609375 C-74.31859375 191.1309375 -73.32859375 190.8009375 -72.30859375 190.4609375 C-63.78298295 148.37707141 -62.14912305 104.62488405 -60.8203125 61.81640625 C-60.78137878 60.61027176 -60.74244507 59.40413727 -60.70233154 58.16145325 C-60.51565907 52.33486862 -60.34836309 46.50903469 -60.21826172 40.6809082 C-60.15655033 38.56589962 -60.09424363 36.45090829 -60.03125 34.3359375 C-60.01768967 33.3953801 -60.00412933 32.45482269 -59.99015808 31.48576355 C-59.60910519 20.1547952 -55.58640609 10.82737778 -47.6484375 2.77734375 C-34.20478221 -9.50262384 -14.97106013 -9.98070675 0 0 Z " fill="#297FB7" transform="translate(543.30859375,208.5390625)"/>
<path d="M0 0 C0.92208252 0.00829834 1.84416504 0.01659668 2.79418945 0.02514648 C16.53718528 0.36476321 26.44079292 5.4751558 36.4375 14.75 C46.02864062 24.92789275 50.49069481 37.97308571 50.0859375 51.859375 C49.29177588 58.99125782 47.70121537 66.41692695 43.6875 72.4375 C43.0275 72.4375 42.3675 72.4375 41.6875 72.4375 C43.35992153 75.43025432 45.11405728 77.93931368 47.4375 80.4375 C49.6875 83.4375 49.6875 83.4375 49.5625 86.0625 C49.27375 86.84625 48.985 87.63 48.6875 88.4375 C48.584375 89.159375 48.48125 89.88125 48.375 90.625 C47.6875 92.4375 47.6875 92.4375 46.125 93.625 C42.6682251 94.7772583 39.31304084 95.07494592 35.6875 95.4375 C35.0275 94.1175 34.3675 92.7975 33.6875 91.4375 C31.6712767 92.15313266 31.6712767 92.15313266 29.6875 93.4375 C28.88221111 95.48750871 28.88221111 95.48750871 28.6875 97.4375 C24.13053797 97.69066456 24.13053797 97.69066456 21.7734375 96.34375 C19.75073633 95.21733472 19.75073633 95.21733472 17.7421875 95.8984375 C17.02289063 96.20007813 16.30359375 96.50171875 15.5625 96.8125 C4.1043266 100.59234122 -9.50705584 99.670906 -20.3125 94.4375 C-33.28815296 87.44794827 -41.67790534 78.39405494 -46.6875 64.4375 C-50.02155592 52.586192 -49.99195289 39.51331779 -44.3125 28.4375 C-43.88839844 27.58929688 -43.46429688 26.74109375 -43.02734375 25.8671875 C-36.35545133 13.71282081 -25.94499412 5.26318403 -12.78369141 1.04394531 C-8.52945696 -0.00006954 -4.36234246 -0.05078536 0 0 Z " fill="#2A7FB7" transform="translate(361.3125,260.5625)"/>
<path d="M0 0 C7.91380163 5.93211317 14.60546784 14.87523168 16.38671875 24.7890625 C17.1557045 37.35902182 15.86233264 47.41749008 8.38671875 57.7890625 C7.66484375 58.8203125 6.94296875 59.8515625 6.19921875 60.9140625 C-0.15756438 68.22735218 -10.09851792 72.29471121 -19.53515625 73.140625 C-31.52061542 73.70781581 -40.63486142 71.47487636 -49.98828125 63.5390625 C-58.72665079 55.05316592 -63.65761145 46.10909853 -63.92578125 33.7890625 C-63.54583726 21.90441436 -60.59271181 12.89105045 -52.36328125 4.0390625 C-37.33337352 -10.02653699 -17.09463645 -10.89548257 0 0 Z " fill="#B8DAE9" transform="translate(524.61328125,411.2109375)"/>
<path d="M0 0 C4.23978982 2.57596792 7.74797484 6.76548093 9.9609375 11.19140625 C10.94957745 24.95631632 10.94957745 24.95631632 6.9609375 30.19140625 C1.81632578 35.42339991 -1.85963495 38.25002293 -9.2890625 38.50390625 C-14.95136446 38.42008928 -19.45127982 36.6478294 -23.578125 32.73046875 C-28.58820835 26.95861834 -29.49762067 22.67170729 -29.3515625 15.16796875 C-28.7642091 9.57342763 -26.26750103 6.10349212 -22.1015625 2.37890625 C-15.11111374 -2.61427143 -7.931859 -3.24485141 0 0 Z " fill="#287FB7" transform="translate(510.0390625,425.80859375)"/>
<path d="M0 0 C0.33 0 0.66 0 1 0 C1 3.3 1 6.6 1 10 C1.66 10 2.32 10 3 10 C3 9.34 3 8.68 3 8 C6.72965139 5.96564469 8.66905042 5 13 5 C14.0625 7.375 14.0625 7.375 15 10 C14.67 10.66 14.34 11.32 14 12 C14.99 12.33 15.98 12.66 17 13 C17 13.66 17 14.32 17 15 C14.525 14.505 14.525 14.505 12 14 C11.67 14.99 11.34 15.98 11 17 C9 16 9 16 7 15 C7 15.99 7 16.98 7 18 C5.77216797 18.82757812 5.77216797 18.82757812 4.51953125 19.671875 C1.59121332 21.87622298 1.59121332 21.87622298 1.51171875 25.890625 C1.54476262 27.3445554 1.60413037 28.79808575 1.6875 30.25 C1.71005859 30.99507812 1.73261719 31.74015625 1.75585938 32.5078125 C1.81456439 34.339409 1.90424243 36.16996653 2 38 C2.66 38.33 3.32 38.66 4 39 C3.01 41.475 3.01 41.475 2 44 C2.99 44.33 3.98 44.66 5 45 C4.01 45 3.02 45 2 45 C1.67 47.31 1.34 49.62 1 52 C2.32 52 3.64 52 5 52 C5 53.32 5 54.64 5 56 C4.21625 56.0825 3.4325 56.165 2.625 56.25 C-0.15242111 56.71229528 -0.15242111 56.71229528 -1.1640625 59.046875 C-1.43992187 59.69140625 -1.71578125 60.3359375 -2 61 C-2.05559501 53.02277859 -1.9077327 45.07881445 -1.5625 37.109375 C-1.51810791 36.03874817 -1.47371582 34.96812134 -1.42797852 33.86505127 C-1.28764415 30.49326538 -1.1438848 27.12163605 -1 23.75 C-0.90341784 21.44401995 -0.80706167 19.13803043 -0.7109375 16.83203125 C-0.47656681 11.22124212 -0.23939488 5.61057689 0 0 Z " fill="#297EB6" transform="translate(613,532)"/>
<path d="M0 0 C0.33 0 0.66 0 1 0 C1.33 31.02 1.66 62.04 2 94 C1.67 94 1.34 94 1 94 C1 91.03 1 88.06 1 85 C0.01 85.495 0.01 85.495 -1 86 C-1.33 86.99 -1.66 87.98 -2 89 C-1.34 89 -0.68 89 0 89 C0 91.31 0 93.62 0 96 C-0.66 96 -1.32 96 -2 96 C-2.495 96.99 -2.495 96.99 -3 98 C-3 97.34 -3 96.68 -3 96 C-3.66 96 -4.32 96 -5 96 C-5.66 97.65 -6.32 99.3 -7 101 C-7.66 101 -8.32 101 -9 101 C-8.125 94.25 -8.125 94.25 -7 92 C-6.34 92 -5.68 92 -5 92 C-4.23477199 88.64541845 -4.23477199 88.64541845 -4 85 C-5.29264699 83.03568595 -5.29264699 83.03568595 -7 82 C-6.01 81.01 -6.01 81.01 -5 80 C-4.01 80 -3.02 80 -2 80 C-0.50021509 77.00043018 -0.82091296 73.90465985 -0.79467773 70.61279297 C-0.78477814 69.85172241 -0.77487854 69.09065186 -0.76467896 68.30651855 C-0.73303322 65.78510676 -0.70829443 63.26367612 -0.68359375 60.7421875 C-0.66302687 58.99626164 -0.64203047 57.25034078 -0.62062073 55.50442505 C-0.56537254 50.90460258 -0.5159754 46.30473497 -0.46777344 41.70483398 C-0.41757845 37.01281711 -0.36188195 32.32086595 -0.30664062 27.62890625 C-0.19902546 18.41932694 -0.09758796 9.20969063 0 0 Z " fill="#146EAE" transform="translate(539,494)"/>
<path d="M0 0 C0 0.33 0 0.66 0 1 C-0.65484375 1.03738281 -1.3096875 1.07476562 -1.984375 1.11328125 C-9.24350244 1.6361845 -15.99421571 3.05598656 -23 5 C-22.29875 6.0725 -21.5975 7.145 -20.875 8.25 C-19.765625 10.19140625 -19.765625 10.19140625 -19 12 C-19.625 14.1875 -19.625 14.1875 -21 16 C-21.37125 16.7425 -21.7425 17.485 -22.125 18.25 C-22.41375 18.8275 -22.7025 19.405 -23 20 C-23.639375 19.67 -24.27875 19.34 -24.9375 19 C-27.53775633 17.73926966 -27.47562948 17.88662259 -30.3125 18.5 C-33 19 -33 19 -37 19 C-37.33 19.99 -37.66 20.98 -38 22 C-38.33 21.01 -38.66 20.02 -39 19 C-34.11251026 10.30192504 -26.09995026 4.16787182 -16.875 0.6796875 C-11.31703301 -0.63428839 -5.66897474 -0.29406785 0 0 Z " fill="#2279B3" transform="translate(273,409)"/>
<path d="M0 0 C0.33 0 0.66 0 1 0 C1.33 20.13 1.66 40.26 2 61 C1.34 61 0.68 61 0 61 C0 61.99 0 62.98 0 64 C-1.98 64 -3.96 64 -6 64 C-6.33 62.68 -6.66 61.36 -7 60 C-8.32 60.66 -9.64 61.32 -11 62 C-11 61.34 -11 60.68 -11 60 C-11.66 59.67 -12.32 59.34 -13 59 C-12.8125 57.125 -12.8125 57.125 -12 55 C-9.5 53.875 -9.5 53.875 -7 53 C-6.67 52.34 -6.34 51.68 -6 51 C-4.35 51.33 -2.7 51.66 -1 52 C-1.00523682 51.34854004 -1.01047363 50.69708008 -1.01586914 50.02587891 C-1.13095098 33.32298781 -0.77585076 16.68491825 0 0 Z " fill="#1C75B1" transform="translate(405,526)"/>
<path d="M0 0 C0.33 0 0.66 0 1 0 C1.33 12.54 1.66 25.08 2 38 C2.66 38.33 3.32 38.66 4 39 C3.01 41.475 3.01 41.475 2 44 C2.99 44.33 3.98 44.66 5 45 C4.01 45 3.02 45 2 45 C1.67 47.31 1.34 49.62 1 52 C2.32 52 3.64 52 5 52 C5 53.32 5 54.64 5 56 C4.21625 56.0825 3.4325 56.165 2.625 56.25 C-0.15242111 56.71229528 -0.15242111 56.71229528 -1.1640625 59.046875 C-1.43992187 59.69140625 -1.71578125 60.3359375 -2 61 C-2.05559501 53.02277859 -1.9077327 45.07881445 -1.5625 37.109375 C-1.51810791 36.03874817 -1.47371582 34.96812134 -1.42797852 33.86505127 C-1.28764415 30.49326538 -1.1438848 27.12163605 -1 23.75 C-0.90341784 21.44401995 -0.80706167 19.13803043 -0.7109375 16.83203125 C-0.47656681 11.22124212 -0.23939488 5.61057689 0 0 Z " fill="#1B73B0" transform="translate(613,532)"/>
<path d="M0 0 C0.66 0 1.32 0 2 0 C2.33773437 0.85464844 2.67546875 1.70929687 3.0234375 2.58984375 C3.46945313 3.69457031 3.91546875 4.79929687 4.375 5.9375 C5.03628906 7.59072266 5.03628906 7.59072266 5.7109375 9.27734375 C6.71041432 12.11230186 6.71041432 12.11230186 9 13 C10.37342831 13.0689472 11.75002102 13.08467708 13.125 13.0625 C14.40375 13.041875 15.6825 13.02125 17 13 C16.44661458 14.953125 15.89322917 16.90625 15.33984375 18.859375 C14.96513841 21.21958796 15.27346676 22.74419051 16 25 C15.34 25 14.68 25 14 25 C14.99 27.97 15.98 30.94 17 34 C14.18177026 31.18177026 12.90795289 29.20181813 11.15234375 25.703125 C10.62962891 24.6615625 10.10691406 23.62 9.56835938 22.546875 C9.03017578 21.45890625 8.49199219 20.3709375 7.9375 19.25 C7.12442383 17.64125 7.12442383 17.64125 6.29492188 16 C3.67122616 10.73314976 1.32123889 5.74451691 0 0 Z M6 1 C6.99 1.33 7.98 1.66 9 2 C8.01 2.33 7.02 2.66 6 3 C6 2.34 6 1.68 6 1 Z M4 3 C6 4 6 4 6 4 Z " fill="#2077B2" transform="translate(249,511)"/>
<path d="M0 0 C0.66 0 1.32 0 2 0 C3.04497358 1.16965793 4.036096 2.38768092 5 3.625 C8.97879916 8.3524527 13.58886563 11.1256751 19 14 C19 13.01 19 12.02 19 11 C25.75 8 25.75 8 28 8 C28 9.32 28 10.64 28 12 C27.34 12 26.68 12 26 12 C26.33 13.98 26.66 15.96 27 18 C16.74924343 17.76702826 8.17616456 10.78387756 1.328125 3.69921875 C0 2 0 2 0 0 Z " fill="#2178B3" transform="translate(323,339)"/>
<path d="M0 0 C0.66 0.33 1.32 0.66 2 1 C-9.1328125 8.421875 -9.1328125 8.421875 -11.11035156 9.72851562 C-12.33025458 10.54934959 -13.53675111 11.39064059 -14.72558594 12.25585938 C-16.3046875 13.390625 -16.3046875 13.390625 -19 15 C-19.99 14.67 -20.98 14.34 -22 14 C-21.01 13.34 -20.02 12.68 -19 12 C-18.7834375 10.824375 -18.7834375 10.824375 -18.5625 9.625 C-17.84665465 6.28438835 -16.72194697 5.02201775 -14 3 C-12.0625 3.3125 -12.0625 3.3125 -10 4 C-6.8569932 3.67764033 -5.03684011 3.02227542 -2.3125 1.375 C-1.549375 0.92125 -0.78625 0.4675 0 0 Z " fill="#2278B3" transform="translate(654,378)"/>
<path d="M0 0 C2.32883474 3.4932521 2 4.92922578 2 9 C-2.70105746 13.80353283 -8.83461036 16.573805 -15 19 C-15 18.34 -15 17.68 -15 17 C-12.36 15.68 -9.72 14.36 -7 13 C-7.33 11.35 -7.66 9.7 -8 8 C-7.01 8 -6.02 8 -5 8 C-5 7.34 -5 6.68 -5 6 C-4.02246356 4.97803008 -3.0194119 3.98020375 -2 3 C-1.34 2.01 -0.68 1.02 0 0 Z " fill="#2178B3" transform="translate(794,634)"/>
<path d="M0 0 C0.33 0.66 0.66 1.32 1 2 C0.16101176 4.19791286 -0.77298362 6.35986888 -1.75 8.5 C-4.31212533 14.22736518 -6.40294058 19.91996675 -8 26 C-8.33 26 -8.66 26 -9 26 C-8.11730205 18.4340176 -8.11730205 18.4340176 -7.375 15.6875 C-6.79455899 13.75883011 -6.79455899 13.75883011 -8 11 C-8.99 11.33 -9.98 11.66 -11 12 C-11.33 11.34 -11.66 10.68 -12 10 C-11.34 10 -10.68 10 -10 10 C-9.67 8.02 -9.34 6.04 -9 4 C-6.03 4.495 -6.03 4.495 -3 5 C-2.01 3.35 -1.02 1.7 0 0 Z " fill="#1E76B2" transform="translate(605,737)"/>
<path d="M0 0 C3.97900266 2.11796826 6.42770046 4.38766113 9.1875 7.9375 C9.86167969 8.79214844 10.53585937 9.64679688 11.23046875 10.52734375 C12.76407562 12.67033083 14.07875007 14.53475577 15 17 C14.67 17.99 14.34 18.98 14 20 C12.35 17.03 10.7 14.06 9 11 C6.8614515 13.1385485 6.57344937 14.13275314 6 17 C5.01 16.67 4.02 16.34 3 16 C2.67 16.99 2.34 17.98 2 19 C1.34 18.67 0.68 18.34 0 18 C-0.625 14.9375 -0.625 14.9375 -1 12 C0.98 11.34 2.96 10.68 5 10 C5 8.68 5 7.36 5 6 C3.37373596 4.61767557 1.7074998 3.28062485 0 2 C0 1.34 0 0.68 0 0 Z " fill="#2278B3" transform="translate(724,297)"/>
<path d="M0 0 C0.33 0.66 0.66 1.32 1 2 C2.93330603 3.09166275 2.93330603 3.09166275 5 4 C5.66 4.33 6.32 4.66 7 5 C7 5.99 7 6.98 7 8 C9.31 8 11.62 8 14 8 C14.33 8.99 14.66 9.98 15 11 C16.49985609 12.66710346 16.49985609 12.66710346 18 14 C12.64533587 12.32557734 7.53296258 10.19015027 2.375 8 C1.529375 7.64421875 0.68375 7.2884375 -0.1875 6.921875 C-3.8481518 5.37447014 -7.45903485 3.80798221 -11 2 C-8.36749612 0.68374806 -7.19820944 1.25186342 -4.375 1.9375 C-3.14910156 2.22947266 -3.14910156 2.22947266 -1.8984375 2.52734375 C-0.95871094 2.76130859 -0.95871094 2.76130859 0 3 C0 2.01 0 1.02 0 0 Z " fill="#1E76B2" transform="translate(347,658)"/>
<path d="M0 0 C2.97 0.33 5.94 0.66 9 1 C8.67 2.32 8.34 3.64 8 5 C8.73863281 5.66644531 9.47726562 6.33289063 10.23828125 7.01953125 C17.36771433 13.4854587 24.25388721 20.13436946 31 27 C30.67 27.66 30.34 28.32 30 29 C29.48203857 28.47156494 28.96407715 27.94312988 28.43041992 27.39868164 C15.65761104 14.26795134 15.65761104 14.26795134 1.73828125 2.3984375 C1.16464844 1.93695312 0.59101563 1.47546875 0 1 C0 0.67 0 0.34 0 0 Z " fill="#1971B0" transform="translate(381,682)"/>
<path d="M0 0 C0.33 0 0.66 0 1 0 C1.09507063 6.43311296 1.15316726 12.65758005 0 19 C-0.33 19 -0.66 19 -1 19 C-1.33 16.69 -1.66 14.38 -2 12 C-2.99 12 -3.98 12 -5 12 C-5.33 12.66 -5.66 13.32 -6 14 C-6.33 11.69 -6.66 9.38 -7 7 C-5.5459375 6.38125 -5.5459375 6.38125 -4.0625 5.75 C-0.87739901 4.35100832 -0.87739901 4.35100832 -0.125 1.8125 C-0.08375 1.214375 -0.0425 0.61625 0 0 Z " fill="#1D75B2" transform="translate(549,378)"/>
<path d="M0 0 C0 2.31 0 4.62 0 7 C0.99 6.67 1.98 6.34 3 6 C3 6.66 3 7.32 3 8 C2.01 8 1.02 8 0 8 C0.25561323 10.3431213 0.59270772 12.67843403 1 15 C1.66 15.33 2.32 15.66 3 16 C3 18 3 18 1.625 19.625 C0 21 0 21 -2 21 C-3.1482685 18.703463 -3.11561175 17.41686833 -3.09765625 14.8671875 C-3.09443359 14.06152344 -3.09121094 13.25585938 -3.08789062 12.42578125 C-3.07951172 11.58402344 -3.07113281 10.74226563 -3.0625 9.875 C-3.05798828 9.02550781 -3.05347656 8.17601562 -3.04882812 7.30078125 C-3.03702874 5.20049091 -3.01909306 3.1002367 -3 1 C-1 0 -1 0 0 0 Z " fill="#3D8BBE" transform="translate(486,255)"/>
<path d="M0 0 C0.33 0 0.66 0 1 0 C1 5.94 1 11.88 1 18 C0.67 18 0.34 18 0 18 C0 15.03 0 12.06 0 9 C-0.99 9.33 -1.98 9.66 -3 10 C-5.6875 8.0625 -5.6875 8.0625 -8 6 C-7.34 5.34 -6.68 4.68 -6 4 C-5.01 4 -4.02 4 -3 4 C-2.67 3.34 -2.34 2.68 -2 2 C-1.67 2.33 -1.34 2.66 -1 3 C-0.67 2.01 -0.34 1.02 0 0 Z " fill="#2178B3" transform="translate(540,570)"/>
<path d="M0 0 C1.68419571 1.46451801 2.88051408 2.77695962 3.9375 4.75 C4.04090511 8.47258389 1.96590465 10.90221085 0 14 C-0.68707555 11.50935112 -1 9.62113708 -1 7 C-1.99 7.33 -2.98 7.66 -4 8 C-4 6.02 -4 4.04 -4 2 C-2.68 1.34 -1.36 0.68 0 0 Z " fill="#BDDDEB" transform="translate(535,452)"/>
<path d="M0 0 C0.33 0.99 0.66 1.98 1 3 C1.99 3.33 2.98 3.66 4 4 C2 7 2 7 -1 8 C-2.52032049 9.49595331 -2.52032049 9.49595331 -3.9375 11.3125 C-6.1728826 14.02171682 -8.46464284 16.56215658 -11 19 C-9.41467191 14.44435939 -7.00996919 10.68524231 -4.375 6.6875 C-3.95476563 6.04232422 -3.53453125 5.39714844 -3.1015625 4.73242188 C-2.07161759 3.15239276 -1.03634372 1.57583953 0 0 Z " fill="#1D74B1" transform="translate(705,521)"/>
<path d="M0 0 C-0.99 1.98 -1.98 3.96 -3 6 C-4.65 6 -6.3 6 -8 6 C-8.4021875 7.3303125 -8.4021875 7.3303125 -8.8125 8.6875 C-9.91710819 11.76877548 -11.22849144 14.26221405 -13 17 C-13.66 16.67 -14.32 16.34 -15 16 C-13.78944898 13.53083639 -12.55828389 11.07630905 -11.3125 8.625 C-10.97283203 7.92632813 -10.63316406 7.22765625 -10.28320312 6.5078125 C-8.58856121 3.21355533 -7.61906513 1.3602831 -4.35546875 -0.5390625 C-2 -1 -2 -1 0 0 Z " fill="#1E76B2" transform="translate(613,609)"/>
<path d="M0 0 C5.64251339 1.36788203 8.64370603 5.5663771 12 10 C14.34892203 13.8643556 15.39950006 16.47233262 15 21 C12.7310917 17.59663754 11.06766374 14.06416938 9.31640625 10.375 C8.08175305 8.14749512 6.89291543 6.67768598 5 5 C3.68 5.99 2.36 6.98 1 8 C0.01 7.34 -0.98 6.68 -2 6 C-0.68 5.67 0.64 5.34 2 5 C1.34 3.35 0.68 1.7 0 0 Z " fill="#1D74B1" transform="translate(790,591)"/>
<path d="M0 0 C3.875 3.75 3.875 3.75 5 6 C5.66 6 6.32 6 7 6 C7.33 4.35 7.66 2.7 8 1 C8.33 1 8.66 1 9 1 C9.33 3.64 9.66 6.28 10 9 C10.33 9 10.66 9 11 9 C11 10.65 11 12.3 11 14 C7.41297339 12.53185858 5.59626852 10.61565711 3.25 7.5625 C2.63640625 6.78003906 2.0228125 5.99757813 1.390625 5.19140625 C0 3 0 3 0 0 Z " fill="#E2EEF6" transform="translate(334,527)"/>
<path d="M0 0 C2 1 2 1 2.625 2.5625 C3.76207457 9.9534847 2.49152768 16.75543699 1 24 C0.67 24 0.34 24 0 24 C-1.125 17.25 -1.125 17.25 0 15 C0.22858114 12.9625237 0.41024278 10.91959697 0.5625 8.875 C0.64628906 7.77929688 0.73007812 6.68359375 0.81640625 5.5546875 C0.87699219 4.71164062 0.93757812 3.86859375 1 3 C0.01 3.33 -0.98 3.66 -2 4 C-2 3.01 -2 2.02 -2 1 C-1.34 0.67 -0.68 0.34 0 0 Z " fill="#2378B3" transform="translate(794,447)"/>
<path d="M0 0 C0.42410156 0.38671875 0.84820312 0.7734375 1.28515625 1.171875 C7.8385235 7.32782969 7.8385235 7.32782969 16 10 C16 10.66 16 11.32 16 12 C18.64 12.66 21.28 13.32 24 14 C18.35652807 15.41086798 15.00340696 13.75755952 10 11 C6.41002748 8.24898845 3.0419131 5.35257657 0 2 C0 1.34 0 0.68 0 0 Z " fill="#CCE6F0" transform="translate(470,468)"/>
<path d="M0 0 C1.74028734 3.10765596 2.51314066 5.9363049 3.125 9.4375 C3.29257812 10.36433594 3.46015625 11.29117188 3.6328125 12.24609375 C3.98273843 14.87053825 4.06716891 17.35642353 4 20 C1.28294264 17.28294264 0.28300288 14.60462715 -1 11 C-0.6875 8.4375 -0.6875 8.4375 0 6 C0.03772913 4.0003559 0.04649906 1.99945939 0 0 Z " fill="#1770AF" transform="translate(545,630)"/>
<path d="M0 0 C0 2.33333333 0 4.66666667 0 7 C-0.66 7.66 -1.32 8.32 -2 9 C-2.66 9 -3.32 9 -4 9 C-4.66 12.63 -5.32 16.26 -6 20 C-6.33 20 -6.66 20 -7 20 C-7.50626749 13.01069605 -7.11273661 8.75783125 -3 3 C-1.25 1.0625 -1.25 1.0625 0 0 Z M-3 5 C-2 7 -2 7 -2 7 Z " fill="#1671AF" transform="translate(488,428)"/>
<path d="M0 0 C2.31 0.33 4.62 0.66 7 1 C7 1.66 7 2.32 7 3 C11.62 5.31 16.24 7.62 21 10 C18 11 18 11 16.11474609 10.3190918 C15.42461426 9.94953369 14.73448242 9.57997559 14.0234375 9.19921875 C13.270625 8.79896484 12.5178125 8.39871094 11.7421875 7.98632812 C10.96101562 7.55771484 10.17984375 7.12910156 9.375 6.6875 C8.58609375 6.27048828 7.7971875 5.85347656 6.984375 5.42382812 C1.13705633 2.27411265 1.13705633 2.27411265 0 0 Z " fill="#176FAE" transform="translate(223,623)"/>
<path d="M0 0 C3 3.75 3 3.75 3 6 C2.34 6 1.68 6 1 6 C1 9.3 1 12.6 1 16 C0.01 16.33 -0.98 16.66 -2 17 C-2 13.37 -2 9.74 -2 6 C-1.67 6 -1.34 6 -1 6 C-0.67 4.02 -0.34 2.04 0 0 Z " fill="#3788BB" transform="translate(484,279)"/>
<path d="M0 0 C0.33 0 0.66 0 1 0 C1.33 6.93 1.66 13.86 2 21 C1.67 21 1.34 21 1 21 C0.67 18.36 0.34 15.72 0 13 C-0.99 12.67 -1.98 12.34 -3 12 C-2.67 11.29875 -2.34 10.5975 -2 9.875 C-0.90966005 6.74027264 -0.92518458 4.29187832 -1 1 C-0.67 0.67 -0.34 0.34 0 0 Z " fill="#3486BB" transform="translate(552,328)"/>
<path d="M0 0 C0 3.16680795 -0.27802668 5.91520491 -1 9 C-1.99 9.66 -2.98 10.32 -4 11 C-5.2188121 14.55672179 -5.2188121 14.55672179 -6 18 C-6.33 18 -6.66 18 -7 18 C-6.75673529 10.33716171 -4.66258997 6.03142373 0 0 Z " fill="#1A72B0" transform="translate(735,434)"/>
<path d="M0 0 C0.99 0.33 1.98 0.66 3 1 C2.34 1.66 1.68 2.32 1 3 C1.99 3 2.98 3 4 3 C4.66 3.33 5.32 3.66 6 4 C4.02 5.32 2.04 6.64 0 8 C-0.66 7.67 -1.32 7.34 -2 7 C-2 6.34 -2 5.68 -2 5 C-2.99 5 -3.98 5 -5 5 C-5 4.01 -5 3.02 -5 2 C-4.360625 1.855625 -3.72125 1.71125 -3.0625 1.5625 C-1.02454854 1.18992819 -1.02454854 1.18992819 0 0 Z " fill="#2076B1" transform="translate(625,391)"/>
<path d="M0 0 C0.86625 0.37125 0.86625 0.37125 1.75 0.75 C1.75 1.41 1.75 2.07 1.75 2.75 C0.21875 4.0390625 0.21875 4.0390625 -1.75 5.375 C-2.3996875 5.82101562 -3.049375 6.26703125 -3.71875 6.7265625 C-4.2240625 7.06429687 -4.729375 7.40203125 -5.25 7.75 C-5.85546875 5.89453125 -5.85546875 5.89453125 -6.25 3.75 C-3.25 -0.36111111 -3.25 -0.36111111 0 0 Z " fill="#2177B2" transform="translate(644.25,687.25)"/>
<path d="M0 0 C0.66 0.33 1.32 0.66 2 1 C-1.3 3.64 -4.6 6.28 -8 9 C-8.66 8.67 -9.32 8.34 -10 8 C-10 7.01 -10 6.02 -10 5 C-9.278125 4.731875 -8.55625 4.46375 -7.8125 4.1875 C-4.94366924 3.06484842 -4.94366924 3.06484842 -2.3125 1.3125 C-1.1678125 0.6628125 -1.1678125 0.6628125 0 0 Z " fill="#1E75B2" transform="translate(657,678)"/>
<path d="M0 0 C0.33 0 0.66 0 1 0 C0.56179109 4.55737263 0.14958831 7.57653445 -3 11 C-3 10.34 -3 9.68 -3 9 C-3.66 8.67 -4.32 8.34 -5 8 C-4.34 6.35 -3.68 4.7 -3 3 C-2.01 3.33 -1.02 3.66 0 4 C0 2.68 0 1.36 0 0 Z " fill="#1A72AF" transform="translate(804,624)"/>
<path d="M0 0 C0.28875 0.639375 0.5775 1.27875 0.875 1.9375 C1.82823451 4.15206079 1.82823451 4.15206079 4 5 C2.329375 5.2165625 2.329375 5.2165625 0.625 5.4375 C-2.82142047 5.78372035 -2.82142047 5.78372035 -5 7 C-3.70700306 4.11562221 -2.34058637 2.12780579 0 0 Z " fill="#1F76B2" transform="translate(586,641)"/>
<path d="M0 0 C1.65 0.33 3.3 0.66 5 1 C3.63629701 3.99220268 2.05091917 6.29026529 -0.125 8.75 C-0.93324219 9.67039062 -0.93324219 9.67039062 -1.7578125 10.609375 C-2.16773438 11.06828125 -2.57765625 11.5271875 -3 12 C-3 11.01 -3 10.02 -3 9 C-2.505 8.566875 -2.01 8.13375 -1.5 7.6875 C0.3314563 5.97790291 0.3314563 5.97790291 0.1875 2.8125 C0.125625 1.884375 0.06375 0.95625 0 0 Z " fill="#1870AF" transform="translate(744,574)"/>
<path d="M0 0 C0.99 0.33 1.98 0.66 3 1 C4.1875 3.5625 4.1875 3.5625 5 6 C4.34 6 3.68 6 3 6 C3 6.66 3 7.32 3 8 C0.24616077 6.62308038 -0.51483101 4.63279958 -2 2 C-1.34 1.34 -0.68 0.68 0 0 Z " fill="#2279B4" transform="translate(594,631)"/>
<path d="M0 0 C2 3 2 3 2 6 C1.38125 6.268125 0.7625 6.53625 0.125 6.8125 C-2.2995233 7.95556848 -2.2995233 7.95556848 -4 11 C-3.48964169 6.6109185 -2.47785723 3.66291938 0 0 Z " fill="#1770AE" transform="translate(619,498)"/>
<path d="M0 0 C0 3.99904969 -1.72586967 5.80200422 -4 9 C-5.32 8.34 -6.64 7.68 -8 7 C-5.36 4.69 -2.72 2.38 0 0 Z " fill="#C2E1ED" transform="translate(517,455)"/>
<path d="M0 0 C2.475 0.495 2.475 0.495 5 1 C5.33 2.32 5.66 3.64 6 5 C3.03 7.475 3.03 7.475 0 10 C0.309375 9.443125 0.61875 8.88625 0.9375 8.3125 C2.05761821 5.87459567 2.56037364 3.63775814 3 1 C2.01 0.67 1.02 0.34 0 0 Z " fill="#1F76B2" transform="translate(628,697)"/>
<path d="M0 0 C0.99 0.33 1.98 0.66 3 1 C3.625 3.3125 3.625 3.3125 4 6 C3.01 7.485 3.01 7.485 2 9 C1.67 8.01 1.34 7.02 1 6 C0.01 6.495 0.01 6.495 -1 7 C-0.67 4.69 -0.34 2.38 0 0 Z " fill="#2077B1" transform="translate(723,474)"/>
<path d="M0 0 C0.33 0.66 0.66 1.32 1 2 C2.32 1.67 3.64 1.34 5 1 C4.6875 2.9375 4.6875 2.9375 4 5 C3.01 5.33 2.02 5.66 1 6 C0.34 5.67 -0.32 5.34 -1 5 C-0.67 3.35 -0.34 1.7 0 0 Z " fill="#2077B3" transform="translate(233,432)"/>
<path d="M0 0 C-1.33333333 0.66666667 -2.66666667 1.33333333 -4 2 C-4.99 2.556875 -4.99 2.556875 -6 3.125 C-8 4 -8 4 -12 4 C-12 3.34 -12 2.68 -12 2 C-7.82262526 0.40861915 -4.46839215 -0.21278058 0 0 Z " fill="#C8E3EE" transform="translate(496,405)"/>
<path d="M0 0 C2.97 0.33 5.94 0.66 9 1 C8.67 1.99 8.34 2.98 8 4 C5.6875 4.25 5.6875 4.25 3 4 C1.1875 2 1.1875 2 0 0 Z " fill="#2078B3" transform="translate(381,682)"/>
<path d="M0 0 C0.33 0 0.66 0 1 0 C1.05447047 1.41623216 1.09300508 2.83308191 1.125 4.25 C1.14820313 5.03890625 1.17140625 5.8278125 1.1953125 6.640625 C0.9828378 9.20731941 0.28654105 10.7916067 -1 13 C-2.0070238 7.96488101 -1.97387813 4.76052962 0 0 Z " fill="#126DAD" transform="translate(795,458)"/>
<path d="M0 0 C0.33 0 0.66 0 1 0 C1 2.97 1 5.94 1 9 C0.01 9.33 -0.98 9.66 -2 10 C-2.1953125 3.9453125 -2.1953125 3.9453125 -2 2 C-1.34 1.34 -0.68 0.68 0 0 Z " fill="#3988BD" transform="translate(482,318)"/>
<path d="M0 0 C3.37503669 1.1858237 5.64722731 2.27573689 8 5 C6.35 5.66 4.7 6.32 3 7 C2.87625 6.401875 2.7525 5.80375 2.625 5.1875 C2.04524015 2.73768652 2.04524015 2.73768652 0 0 Z " fill="#1D74B1" transform="translate(251,562)"/>
<path d="M0 0 C0.66 0 1.32 0 2 0 C2.433125 0.9590625 2.433125 0.9590625 2.875 1.9375 C3.82823451 4.15206079 3.82823451 4.15206079 6 5 C6.33 4.34 6.66 3.68 7 3 C7 3.99 7 4.98 7 6 C5.02 6.33 3.04 6.66 1 7 C0.67 4.69 0.34 2.38 0 0 Z " fill="#3285BB" transform="translate(300,458)"/>
<path d="M0 0 C2 2 2 2 2.125 5.125 C2.08375 6.07375 2.0425 7.0225 2 8 C1.01 7.67 0.02 7.34 -1 7 C-0.67 4.69 -0.34 2.38 0 0 Z " fill="#2279B3" transform="translate(304,455)"/>
<path d="M0 0 C0.33 0 0.66 0 1 0 C1 1.65 1 3.3 1 5 C1.66 5 2.32 5 3 5 C2.67 5.99 2.34 6.98 2 8 C1.01 8.33 0.02 8.66 -1 9 C-1.125 2.25 -1.125 2.25 0 0 Z " fill="#1F75B1" transform="translate(474,387)"/>
<path d="M0 0 C0.33 0 0.66 0 1 0 C1 1.98 1 3.96 1 6 C1.66 6.33 2.32 6.66 3 7 C2.34 7 1.68 7 1 7 C1 7.66 1 8.32 1 9 C0.34 9 -0.32 9 -1 9 C-1.625 5.625 -1.625 5.625 -2 2 C-1.34 1.34 -0.68 0.68 0 0 Z " fill="#3A88BD" transform="translate(480,344)"/>
<path d="M0 0 C0 3 0 3 -2.5 5.6875 C-3.325 6.450625 -4.15 7.21375 -5 8 C-5.66 7.67 -6.32 7.34 -7 7 C-4.69 4.69 -2.38 2.38 0 0 Z " fill="#136CAB" transform="translate(579,649)"/>
<path d="M0 0 C0.33 0.66 0.66 1.32 1 2 C1.66 2.33 2.32 2.66 3 3 C2.34 3 1.68 3 1 3 C1 3.66 1 4.32 1 5 C0.01 5.33 -0.98 5.66 -2 6 C-2.33 4.68 -2.66 3.36 -3 2 C-2.01 1.34 -1.02 0.68 0 0 Z " fill="#1D76B1" transform="translate(574,395)"/>
<path d="M0 0 C0.33 0 0.66 0 1 0 C1.3125 2.8125 1.3125 2.8125 1 6 C-1.5 7.875 -1.5 7.875 -4 9 C-3.71125 8.443125 -3.4225 7.88625 -3.125 7.3125 C-1.9586747 4.91505355 -0.9660119 2.48403061 0 0 Z " fill="#E5F1F8" transform="translate(648,342)"/>
</svg>
